{
    "asset" : {
        "generator" : "Khronos glTF Blender I/O v1.8.19",
        "version" : "2.0"
    },
    "scene" : 0,
    "scenes" : [
        {
            "name" : "Scene",
            "nodes" : [
                0,
                1,
                2
            ]
        }
    ],
    "nodes" : [
        {
            "mesh" : 0,
            "name" : "bottom",
            "scale" : [
                1.544614315032959,
                1,
                0.8043498396873474
            ]
        },
        {
            "mesh" : 1,
            "name" : "MID",
            "scale" : [
                1.544614315032959,
                1,
                0.8043498396873474
            ]
        },
        {
            "mesh" : 2,
            "name" : "TOP",
            "scale" : [
                1.544614315032959,
                1,
                0.8043498396873474
            ]
        }
    ],
    "meshes" : [
        {
            "name" : "BOTOM",
            "primitives" : [
                {
                    "attributes" : {
                        "POSITION" : 0,
                        "NORMAL" : 1,
                        "TEXCOORD_0" : 2
                    },
                    "indices" : 3
                }
            ]
        },
        {
            "name" : "MID",
            "primitives" : [
                {
                    "attributes" : {
                        "POSITION" : 4,
                        "NORMAL" : 5,
                        "TEXCOORD_0" : 6
                    },
                    "indices" : 7
                }
            ]
        },
        {
            "name" : "TOP.002",
            "primitives" : [
                {
                    "attributes" : {
                        "POSITION" : 8,
                        "NORMAL" : 9,
                        "TEXCOORD_0" : 10
                    },
                    "indices" : 11
                }
            ]
        }
    ],
    "accessors" : [
        {
            "bufferView" : 0,
            "componentType" : 5126,
            "count" : 15360,
            "max" : [
                0.9104692339897156,
                -9.152987480163574,
                0.9757665991783142
            ],
            "min" : [
                -0.9104691743850708,
                -9.236246109008789,
                -0.9757664203643799
            ],
            "type" : "VEC3"
        },
        {
            "bufferView" : 1,
            "componentType" : 5126,
            "count" : 15360,
            "type" : "VEC3"
        },
        {
            "bufferView" : 2,
            "componentType" : 5126,
            "count" : 15360,
            "type" : "VEC2"
        },
        {
            "bufferView" : 3,
            "componentType" : 5123,
            "count" : 23040,
            "type" : "SCALAR"
        },
        {
            "bufferView" : 4,
            "componentType" : 5126,
            "count" : 50176,
            "max" : [
                1.0267390012741089,
                -3.1631009578704834,
                1.0927983522415161
            ],
            "min" : [
                -1.026739239692688,
                -9.152990341186523,
                -1.1156224012374878
            ],
            "type" : "VEC3"
        },
        {
            "bufferView" : 5,
            "componentType" : 5126,
            "count" : 50176,
            "type" : "VEC3"
        },
        {
            "bufferView" : 6,
            "componentType" : 5126,
            "count" : 50176,
            "type" : "VEC2"
        },
        {
            "bufferView" : 7,
            "componentType" : 5123,
            "count" : 75264,
            "type" : "SCALAR"
        },
        {
            "bufferView" : 8,
            "componentType" : 5126,
            "count" : 34816,
            "max" : [
                1.045365810394287,
                -2.3536899089813232,
                1.474236011505127
            ],
            "min" : [
                -1.045365810394287,
                -3.456803560256958,
                -1.4442451000213623
            ],
            "type" : "VEC3"
        },
        {
            "bufferView" : 9,
            "componentType" : 5126,
            "count" : 34816,
            "type" : "VEC3"
        },
        {
            "bufferView" : 10,
            "componentType" : 5126,
            "count" : 34816,
            "type" : "VEC2"
        },
        {
            "bufferView" : 11,
            "componentType" : 5123,
            "count" : 52224,
            "type" : "SCALAR"
        }
    ],
    "bufferViews" : [
        {
            "buffer" : 0,
            "byteLength" : 184320,
            "byteOffset" : 0
        },
        {
            "buffer" : 0,
            "byteLength" : 184320,
            "byteOffset" : 184320
        },
        {
            "buffer" : 0,
            "byteLength" : 122880,
            "byteOffset" : 368640
        },
        {
            "buffer" : 0,
            "byteLength" : 46080,
            "byteOffset" : 491520
        },
        {
            "buffer" : 0,
            "byteLength" : 602112,
            "byteOffset" : 537600
        },
        {
            "buffer" : 0,
            "byteLength" : 602112,
            "byteOffset" : 1139712
        },
        {
            "buffer" : 0,
            "byteLength" : 401408,
            "byteOffset" : 1741824
        },
        {
            "buffer" : 0,
            "byteLength" : 150528,
            "byteOffset" : 2143232
        },
        {
            "buffer" : 0,
            "byteLength" : 417792,
            "byteOffset" : 2293760
        },
        {
            "buffer" : 0,
            "byteLength" : 417792,
            "byteOffset" : 2711552
        },
        {
            "buffer" : 0,
            "byteLength" : 278528,
            "byteOffset" : 3129344
        },
        {
            "buffer" : 0,
            "byteLength" : 104448,
            "byteOffset" : 3407872
        }
    ],
    "buffers" : [
        {
            "byteLength" : 3512320,
            "uri" : "pants.bin"
        }
    ]
}
