{
    "asset" : {
        "generator" : "Khronos glTF Blender I/O v1.8.19",
        "version" : "2.0"
    },
    "scene" : 0,
    "scenes" : [
        {
            "name" : "Scene",
            "nodes" : [
                0
            ]
        }
    ],
    "nodes" : [
        {
            "mesh" : 0,
            "name" : "shirt",
            "scale" : [
                1,
                1,
                0.8839290142059326
            ],
            "translation" : [
                5.320258140563965,
                11.323356628417969,
                0.9290101528167725
            ]
        }
    ],
    "materials" : [
        {
            "doubleSided" : true,
            "name" : "main",
            "pbrMetallicRoughness" : {
                "baseColorFactor" : [
                    0.800000011920929,
                    0.800000011920929,
                    0.800000011920929,
                    1
                ],
                "metallicFactor" : 0,
                "roughnessFactor" : 0.5
            }
        },
        {
            "doubleSided" : true,
            "name" : "linen",
            "pbrMetallicRoughness" : {
                "baseColorFactor" : [
                    0.800000011920929,
                    0.800000011920929,
                    0.800000011920929,
                    1
                ],
                "metallicFactor" : 0,
                "roughnessFactor" : 0.5
            }
        },
        {
            "doubleSided" : true,
            "name" : "bottom",
            "pbrMetallicRoughness" : {
                "baseColorFactor" : [
                    0.800000011920929,
                    0.800000011920929,
                    0.800000011920929,
                    1
                ],
                "metallicFactor" : 0,
                "roughnessFactor" : 0.5
            }
        }
    ],
    "meshes" : [
        {
            "name" : "Cube.019",
            "primitives" : [
                {
                    "attributes" : {
                        "POSITION" : 0,
                        "NORMAL" : 1,
                        "TEXCOORD_0" : 2
                    },
                    "indices" : 3,
                    "material" : 0
                },
                {
                    "attributes" : {
                        "POSITION" : 4,
                        "NORMAL" : 5,
                        "TEXCOORD_0" : 6
                    },
                    "indices" : 7,
                    "material" : 1
                },
                {
                    "attributes" : {
                        "POSITION" : 8,
                        "NORMAL" : 9,
                        "TEXCOORD_0" : 10
                    },
                    "indices" : 11,
                    "material" : 2
                }
            ]
        }
    ],
    "accessors" : [
        {
            "bufferView" : 0,
            "componentType" : 5126,
            "count" : 10243,
            "max" : [
                2.5870461463928223,
                1.8163915872573853,
                1.2880994081497192
            ],
            "min" : [
                -2.5868778228759766,
                -1.9328887462615967,
                -1.0855251550674438
            ],
            "type" : "VEC3"
        },
        {
            "bufferView" : 1,
            "componentType" : 5126,
            "count" : 10243,
            "type" : "VEC3"
        },
        {
            "bufferView" : 2,
            "componentType" : 5126,
            "count" : 10243,
            "type" : "VEC2"
        },
        {
            "bufferView" : 3,
            "componentType" : 5123,
            "count" : 55608,
            "type" : "SCALAR"
        },
        {
            "bufferView" : 4,
            "componentType" : 5126,
            "count" : 2880,
            "max" : [
                2.4360427856445312,
                1.8127111196517944,
                1.2595484256744385
            ],
            "min" : [
                -2.43587327003479,
                -2.0233957767486572,
                -1.0449680089950562
            ],
            "type" : "VEC3"
        },
        {
            "bufferView" : 5,
            "componentType" : 5126,
            "count" : 2880,
            "type" : "VEC3"
        },
        {
            "bufferView" : 6,
            "componentType" : 5126,
            "count" : 2880,
            "type" : "VEC2"
        },
        {
            "bufferView" : 7,
            "componentType" : 5123,
            "count" : 16104,
            "type" : "SCALAR"
        },
        {
            "bufferView" : 8,
            "componentType" : 5126,
            "count" : 862,
            "max" : [
                1.4351710081100464,
                -1.9535672664642334,
                1.2501459121704102
            ],
            "min" : [
                -1.4350024461746216,
                -2.2395999431610107,
                -1.032183051109314
            ],
            "type" : "VEC3"
        },
        {
            "bufferView" : 9,
            "componentType" : 5126,
            "count" : 862,
            "type" : "VEC3"
        },
        {
            "bufferView" : 10,
            "componentType" : 5126,
            "count" : 862,
            "type" : "VEC2"
        },
        {
            "bufferView" : 11,
            "componentType" : 5123,
            "count" : 4608,
            "type" : "SCALAR"
        }
    ],
    "bufferViews" : [
        {
            "buffer" : 0,
            "byteLength" : 122916,
            "byteOffset" : 0
        },
        {
            "buffer" : 0,
            "byteLength" : 122916,
            "byteOffset" : 122916
        },
        {
            "buffer" : 0,
            "byteLength" : 81944,
            "byteOffset" : 245832
        },
        {
            "buffer" : 0,
            "byteLength" : 111216,
            "byteOffset" : 327776
        },
        {
            "buffer" : 0,
            "byteLength" : 34560,
            "byteOffset" : 438992
        },
        {
            "buffer" : 0,
            "byteLength" : 34560,
            "byteOffset" : 473552
        },
        {
            "buffer" : 0,
            "byteLength" : 23040,
            "byteOffset" : 508112
        },
        {
            "buffer" : 0,
            "byteLength" : 32208,
            "byteOffset" : 531152
        },
        {
            "buffer" : 0,
            "byteLength" : 10344,
            "byteOffset" : 563360
        },
        {
            "buffer" : 0,
            "byteLength" : 10344,
            "byteOffset" : 573704
        },
        {
            "buffer" : 0,
            "byteLength" : 6896,
            "byteOffset" : 584048
        },
        {
            "buffer" : 0,
            "byteLength" : 9216,
            "byteOffset" : 590944
        }
    ],
    "buffers" : [
        {
            "byteLength" : 600160,
            "uri" : "shirt.bin"
        }
    ]
}
