{
  "accessors": [
    {
      "bufferView": 2,
      "componentType": 5126,
      "count": 2240,
      "max": [
        2.715236186981201,
        6.9388203620910645,
        0.5537906289100647
      ],
      "min": [
        -2.715236186981201,
        4.811217784881592,
        -0.7377452254295349
      ],
      "type": "VEC3"
    },
    {
      "bufferView": 2,
      "byteOffset": 26880,
      "componentType": 5126,
      "count": 2240,
      "max": [
        0.9999591112136841,
        0.977751612663269,
        0.9978912472724915
      ],
      "min": [
        -0.9994627833366394,
        -0.9969446659088135,
        -0.9985710978507996
      ],
      "type": "VEC3"
    },
    {
      "bufferView": 3,
      "componentType": 5126,
      "count": 2240,
      "max": [
        0.9998443126678467,
        0.9978794455528259,
        0.9998886585235596,
        1.0
      ],
      "min": [
        -0.9997679591178894,
        -0.9992527961730957,
        -0.9980440139770508,
        -1.0
      ],
      "type": "VEC4"
    },
    {
      "bufferView": 1,
      "componentType": 5126,
      "count": 2240,
      "max": [
        0.9863283634185791,
        0.9871701002120972
      ],
      "min": [
        0.01092400774359703,
        0.012582987546920776
      ],
      "type": "VEC2"
    },
    {
      "bufferView": 0,
      "componentType": 5125,
      "count": 11280,
      "type": "SCALAR"
    },
    {
      "bufferView": 2,
      "byteOffset": 53760,
      "componentType": 5126,
      "count": 647,
      "max": [
        0.026175498962402344,
        6.1307373046875,
        0.3323405385017395
      ],
      "min": [
        -0.029847383499145508,
        6.009898662567139,
        0.22236377000808716
      ],
      "type": "VEC3"
    },
    {
      "bufferView": 2,
      "byteOffset": 61524,
      "componentType": 5126,
      "count": 647,
      "max": [
        0.9993974566459656,
        0.9894670844078064,
        0.9931089282035828
      ],
      "min": [
        -0.9989725351333618,
        -0.968185544013977,
        -0.9767807722091675
      ],
      "type": "VEC3"
    },
    {
      "bufferView": 3,
      "byteOffset": 35840,
      "componentType": 5126,
      "count": 647,
      "max": [
        0.9999622702598572,
        0.9982010126113892,
        0.9881731271743774,
        1.0
      ],
      "min": [
        -0.9999720454216003,
        -0.9425508975982666,
        -0.9977919459342957,
        -1.0
      ],
      "type": "VEC4"
    },
    {
      "bufferView": 1,
      "byteOffset": 17920,
      "componentType": 5126,
      "count": 647,
      "max": [
        0.623096227645874,
        0.9836146831512451
      ],
      "min": [
        0.5473520755767822,
        0.9063806533813477
      ],
      "type": "VEC2"
    },
    {
      "bufferView": 0,
      "byteOffset": 45120,
      "componentType": 5125,
      "count": 2568,
      "type": "SCALAR"
    },
    {
      "bufferView": 2,
      "byteOffset": 69288,
      "componentType": 5126,
      "count": 700,
      "max": [
        0.010611563920974731,
        6.165964126586914,
        0.25665199756622314
      ],
      "min": [
        -0.01372992992401123,
        6.102377414703369,
        0.19462639093399048
      ],
      "type": "VEC3"
    },
    {
      "bufferView": 2,
      "byteOffset": 77688,
      "componentType": 5126,
      "count": 700,
      "max": [
        0.9999135136604309,
        0.9786168932914734,
        0.9392677545547485
      ],
      "min": [
        -0.9997747540473938,
        -0.9375830292701721,
        -0.9392584562301636
      ],
      "type": "VEC3"
    },
    {
      "bufferView": 3,
      "byteOffset": 46192,
      "componentType": 5126,
      "count": 700,
      "max": [
        0.9999996423721313,
        0.9558766484260559,
        0.9582043886184692,
        1.0
      ],
      "min": [
        -0.9999140501022339,
        -0.9760178923606873,
        -0.9987680315971375,
        -1.0
      ],
      "type": "VEC4"
    },
    {
      "bufferView": 1,
      "byteOffset": 23096,
      "componentType": 5126,
      "count": 700,
      "max": [
        0.5995723009109497,
        0.8924990892410278
      ],
      "min": [
        0.5762497186660767,
        0.8614163994789124
      ],
      "type": "VEC2"
    },
    {
      "bufferView": 0,
      "byteOffset": 55392,
      "componentType": 5125,
      "count": 2478,
      "type": "SCALAR"
    }
  ],
  "asset": {
    "extras": {
      "author": "ahscott99 (https://sketchfab.com/ahscott99)",
      "license": "CC-BY-4.0 (http://creativecommons.org/licenses/by/4.0/)",
      "source": "https://sketchfab.com/3d-models/cropped-jacket-7f9633ce2a7f438f9ec2f4e4fac2ba78",
      "title": "Cropped Jacket"
    },
    "generator": "Sketchfab-13.42.0",
    "version": "2.0"
  },
  "bufferViews": [
    {
      "buffer": 0,
      "byteLength": 65304,
      "name": "floatBufferViews",
      "target": 34963
    },
    {
      "buffer": 0,
      "byteLength": 28696,
      "byteOffset": 65304,
      "byteStride": 8,
      "name": "floatBufferViews",
      "target": 34962
    },
    {
      "buffer": 0,
      "byteLength": 86088,
      "byteOffset": 94000,
      "byteStride": 12,
      "name": "floatBufferViews",
      "target": 34962
    },
    {
      "buffer": 0,
      "byteLength": 57392,
      "byteOffset": 180088,
      "byteStride": 16,
      "name": "floatBufferViews",
      "target": 34962
    }
  ],
  "buffers": [
    {
      "byteLength": 237480,
      "uri": "scene.bin"
    }
  ],
  "images": [
    {
      "uri": "textures/Fabric_baseColor.png"
    },
    {
      "uri": "textures/Fabric_metallicRoughness.png"
    },
    {
      "uri": "textures/Fabric_normal.png"
    },
    {
      "uri": "textures/Metal_baseColor.png"
    },
    {
      "uri": "textures/Metal_metallicRoughness.png"
    },
    {
      "uri": "textures/Metal_normal.png"
    }
  ],
  "materials": [
    {
      "doubleSided": true,
      "name": "Fabric",
      "normalTexture": {
        "index": 2
      },
      "pbrMetallicRoughness": {
        "baseColorTexture": {
          "index": 0
        },
        "metallicRoughnessTexture": {
          "index": 1
        }
      }
    },
    {
      "doubleSided": true,
      "name": "Metal",
      "normalTexture": {
        "index": 5
      },
      "occlusionTexture": {
        "index": 4
      },
      "pbrMetallicRoughness": {
        "baseColorTexture": {
          "index": 3
        },
        "metallicRoughnessTexture": {
          "index": 4
        }
      }
    }
  ],
  "meshes": [
    {
      "name": "jacket_low_Fabric_0",
      "primitives": [
        {
          "attributes": {
            "NORMAL": 1,
            "POSITION": 0,
            "TANGENT": 2,
            "TEXCOORD_0": 3
          },
          "indices": 4,
          "material": 0,
          "mode": 4
        }
      ]
    },
    {
      "name": "zipper_tab_low_Metal_0",
      "primitives": [
        {
          "attributes": {
            "NORMAL": 6,
            "POSITION": 5,
            "TANGENT": 7,
            "TEXCOORD_0": 8
          },
          "indices": 9,
          "material": 1,
          "mode": 4
        }
      ]
    },
    {
      "name": "zipper_slider_low_Metal_0",
      "primitives": [
        {
          "attributes": {
            "NORMAL": 11,
            "POSITION": 10,
            "TANGENT": 12,
            "TEXCOORD_0": 13
          },
          "indices": 14,
          "material": 1,
          "mode": 4
        }
      ]
    }
  ],
  "nodes": [
    {
      "children": [
        1
      ],
      "matrix": [
        1.0,
        0.0,
        0.0,
        0.0,
        0.0,
        2.220446049250313e-16,
        -1.0,
        0.0,
        0.0,
        1.0,
        2.220446049250313e-16,
        0.0,
        0.0,
        0.0,
        0.0,
        1.0
      ],
      "name": "Sketchfab_model"
    },
    {
      "children": [
        2
      ],
      "matrix": [
        0.009999999776482582,
        0.0,
        0.0,
        0.0,
        0.0,
        0.0,
        0.009999999776482582,
        0.0,
        0.0,
        -0.009999999776482582,
        0.0,
        0.0,
        0.0,
        0.0,
        0.0,
        1.0
      ],
      "name": "31c0a9ed11c040ef80d8c58d57f7a6f9.fbx"
    },
    {
      "children": [
        3,
        5,
        7
      ],
      "name": "RootNode"
    },
    {
      "children": [
        4
      ],
      "name": "jacket_low"
    },
    {
      "mesh": 0,
      "name": "jacket_low_Fabric_0"
    },
    {
      "children": [
        6
      ],
      "name": "zipper_tab_low"
    },
    {
      "mesh": 1,
      "name": "zipper_tab_low_Metal_0"
    },
    {
      "children": [
        8
      ],
      "name": "zipper_slider_low"
    },
    {
      "mesh": 2,
      "name": "zipper_slider_low_Metal_0"
    }
  ],
  "samplers": [
    {
      "magFilter": 9729,
      "minFilter": 9987,
      "wrapS": 10497,
      "wrapT": 10497
    }
  ],
  "scene": 0,
  "scenes": [
    {
      "name": "Sketchfab_Scene",
      "nodes": [
        0
      ]
    }
  ],
  "textures": [
    {
      "sampler": 0,
      "source": 0
    },
    {
      "sampler": 0,
      "source": 1
    },
    {
      "sampler": 0,
      "source": 2
    },
    {
      "sampler": 0,
      "source": 3
    },
    {
      "sampler": 0,
      "source": 4
    },
    {
      "sampler": 0,
      "source": 5
    }
  ]
}
