{
    "asset" : {
        "generator" : "Khronos glTF Blender I/O v1.8.19",
        "version" : "2.0"
    },
    "scene" : 0,
    "scenes" : [
        {
            "name" : "Scene",
            "nodes" : [
                0
            ]
        }
    ],
    "nodes" : [
        {
            "mesh" : 0,
            "name" : "LACES",
            "translation" : [
                0.38619324564933777,
                1.2968456745147705,
                0.343731164932251
            ]
        }
    ],
    "materials" : [
        {
            "doubleSided" : true,
            "name" : "LACES",
            "pbrMetallicRoughness" : {
                "baseColorFactor" : [
                    0.800000011920929,
                    0.800000011920929,
                    0.800000011920929,
                    1
                ],
                "metallicFactor" : 0,
                "roughnessFactor" : 0.5
            }
        },
        {
            "doubleSided" : true,
            "name" : "TOP",
            "pbrMetallicRoughness" : {
                "baseColorFactor" : [
                    0.800000011920929,
                    0.800000011920929,
                    0.800000011920929,
                    1
                ],
                "metallicFactor" : 0,
                "roughnessFactor" : 0.5
            }
        },
        {
            "doubleSided" : true,
            "name" : "MID",
            "pbrMetallicRoughness" : {
                "baseColorFactor" : [
                    0.800000011920929,
                    0.800000011920929,
                    0.800000011920929,
                    1
                ],
                "metallicFactor" : 0,
                "roughnessFactor" : 0.5
            }
        }
    ],
    "meshes" : [
        {
            "name" : "LACE",
            "primitives" : [
                {
                    "attributes" : {
                        "POSITION" : 0,
                        "NORMAL" : 1,
                        "TEXCOORD_0" : 2
                    },
                    "indices" : 3,
                    "material" : 0
                },
                {
                    "attributes" : {
                        "POSITION" : 4,
                        "NORMAL" : 5,
                        "TEXCOORD_0" : 6
                    },
                    "indices" : 7,
                    "material" : 1
                },
                {
                    "attributes" : {
                        "POSITION" : 8,
                        "NORMAL" : 9,
                        "TEXCOORD_0" : 10
                    },
                    "indices" : 11,
                    "material" : 2
                }
            ]
        }
    ],
    "accessors" : [
        {
            "bufferView" : 0,
            "componentType" : 5126,
            "count" : 11258,
            "max" : [
                0.03895583003759384,
                0.3945949971675873,
                0.024663733318448067
            ],
            "min" : [
                -0.6642212271690369,
                -0.0993657112121582,
                -0.5954870581626892
            ],
            "type" : "VEC3"
        },
        {
            "bufferView" : 1,
            "componentType" : 5126,
            "count" : 11258,
            "type" : "VEC3"
        },
        {
            "bufferView" : 2,
            "componentType" : 5126,
            "count" : 11258,
            "type" : "VEC2"
        },
        {
            "bufferView" : 3,
            "componentType" : 5123,
            "count" : 62208,
            "type" : "SCALAR"
        },
        {
            "bufferView" : 4,
            "componentType" : 5126,
            "count" : 51072,
            "max" : [
                0.3711238503456116,
                0.8775144219398499,
                1.0199352502822876
            ],
            "min" : [
                -1.046606421470642,
                -0.7958228588104248,
                -1.7074122428894043
            ],
            "type" : "VEC3"
        },
        {
            "bufferView" : 5,
            "componentType" : 5126,
            "count" : 51072,
            "type" : "VEC3"
        },
        {
            "bufferView" : 6,
            "componentType" : 5126,
            "count" : 51072,
            "type" : "VEC2"
        },
        {
            "bufferView" : 7,
            "componentType" : 5123,
            "count" : 270744,
            "type" : "SCALAR"
        },
        {
            "bufferView" : 8,
            "componentType" : 5126,
            "count" : 266,
            "max" : [
                0.282426118850708,
                0.007867136970162392,
                0.9046841859817505
            ],
            "min" : [
                -0.9922211170196533,
                -0.5578526854515076,
                0.2965569496154785
            ],
            "type" : "VEC3"
        },
        {
            "bufferView" : 9,
            "componentType" : 5126,
            "count" : 266,
            "type" : "VEC3"
        },
        {
            "bufferView" : 10,
            "componentType" : 5126,
            "count" : 266,
            "type" : "VEC2"
        },
        {
            "bufferView" : 11,
            "componentType" : 5123,
            "count" : 1224,
            "type" : "SCALAR"
        }
    ],
    "bufferViews" : [
        {
            "buffer" : 0,
            "byteLength" : 135096,
            "byteOffset" : 0
        },
        {
            "buffer" : 0,
            "byteLength" : 135096,
            "byteOffset" : 135096
        },
        {
            "buffer" : 0,
            "byteLength" : 90064,
            "byteOffset" : 270192
        },
        {
            "buffer" : 0,
            "byteLength" : 124416,
            "byteOffset" : 360256
        },
        {
            "buffer" : 0,
            "byteLength" : 612864,
            "byteOffset" : 484672
        },
        {
            "buffer" : 0,
            "byteLength" : 612864,
            "byteOffset" : 1097536
        },
        {
            "buffer" : 0,
            "byteLength" : 408576,
            "byteOffset" : 1710400
        },
        {
            "buffer" : 0,
            "byteLength" : 541488,
            "byteOffset" : 2118976
        },
        {
            "buffer" : 0,
            "byteLength" : 3192,
            "byteOffset" : 2660464
        },
        {
            "buffer" : 0,
            "byteLength" : 3192,
            "byteOffset" : 2663656
        },
        {
            "buffer" : 0,
            "byteLength" : 2128,
            "byteOffset" : 2666848
        },
        {
            "buffer" : 0,
            "byteLength" : 2448,
            "byteOffset" : 2668976
        }
    ],
    "buffers" : [
        {
            "byteLength" : 2671424,
            "uri" : "Kicks.bin"
        }
    ]
}
