{
    "asset" : {
        "generator" : "Khronos glTF Blender I/O v1.8.19",
        "version" : "2.0"
    },
    "scene" : 0,
    "scenes" : [
        {
            "name" : "Scene",
            "nodes" : [
                0
            ]
        }
    ],
    "nodes" : [
        {
            "mesh" : 0,
            "name" : "hoodie",
            "scale" : [
                1.0092772245407104,
                1.0092772245407104,
                1.0092772245407104
            ],
            "translation" : [
                0,
                11.755441665649414,
                -0.1731017529964447
            ]
        }
    ],
    "materials" : [
        {
            "doubleSided" : true,
            "name" : "Hoodie",
            "pbrMetallicRoughness" : {
                "baseColorFactor" : [
                    0.21711120009422302,
                    0.21711120009422302,
                    0.21711120009422302,
                    1
                ],
                "metallicFactor" : 0,
                "roughnessFactor" : 0.5
            }
        },
        {
            "doubleSided" : true,
            "name" : "cap",
            "pbrMetallicRoughness" : {
                "baseColorFactor" : [
                    0.6094608306884766,
                    0.6094608306884766,
                    0.6094608306884766,
                    1
                ],
                "metallicFactor" : 0.39436620473861694,
                "roughnessFactor" : 0.26056337356567383
            }
        },
        {
            "doubleSided" : true,
            "name" : "Strings",
            "pbrMetallicRoughness" : {
                "baseColorFactor" : [
                    0.21094313263893127,
                    0.21094313263893127,
                    0.21094313263893127,
                    1
                ],
                "metallicFactor" : 0,
                "roughnessFactor" : 0.5
            }
        }
    ],
    "meshes" : [
        {
            "name" : "Cube.007",
            "primitives" : [
                {
                    "attributes" : {
                        "POSITION" : 0,
                        "NORMAL" : 1,
                        "TEXCOORD_0" : 2
                    },
                    "indices" : 3,
                    "material" : 0
                },
                {
                    "attributes" : {
                        "POSITION" : 4,
                        "NORMAL" : 5,
                        "TEXCOORD_0" : 6
                    },
                    "indices" : 7,
                    "material" : 1
                },
                {
                    "attributes" : {
                        "POSITION" : 8,
                        "NORMAL" : 9,
                        "TEXCOORD_0" : 10
                    },
                    "indices" : 11,
                    "material" : 2
                }
            ]
        }
    ],
    "accessors" : [
        {
            "bufferView" : 0,
            "componentType" : 5126,
            "count" : 16204,
            "max" : [
                4.279257297515869,
                2.0400123596191406,
                1.895899772644043
            ],
            "min" : [
                -4.279257297515869,
                -2.534952163696289,
                -2.2176084518432617
            ],
            "type" : "VEC3"
        },
        {
            "bufferView" : 1,
            "componentType" : 5126,
            "count" : 16204,
            "type" : "VEC3"
        },
        {
            "bufferView" : 2,
            "componentType" : 5126,
            "count" : 16204,
            "type" : "VEC2"
        },
        {
            "bufferView" : 3,
            "componentType" : 5123,
            "count" : 87786,
            "type" : "SCALAR"
        },
        {
            "bufferView" : 4,
            "componentType" : 5126,
            "count" : 48,
            "max" : [
                0.3668038547039032,
                0.6918172240257263,
                1.470829725265503
            ],
            "min" : [
                -0.36680352687835693,
                0.6410924792289734,
                1.4451262950897217
            ],
            "type" : "VEC3"
        },
        {
            "bufferView" : 5,
            "componentType" : 5126,
            "count" : 48,
            "type" : "VEC3"
        },
        {
            "bufferView" : 6,
            "componentType" : 5126,
            "count" : 48,
            "type" : "VEC2"
        },
        {
            "bufferView" : 7,
            "componentType" : 5123,
            "count" : 204,
            "type" : "SCALAR"
        },
        {
            "bufferView" : 8,
            "componentType" : 5126,
            "count" : 232,
            "max" : [
                0.3639231026172638,
                1.519278883934021,
                1.4710888862609863
            ],
            "min" : [
                -0.3639228343963623,
                0.6866070628166199,
                1.036446213722229
            ],
            "type" : "VEC3"
        },
        {
            "bufferView" : 9,
            "componentType" : 5126,
            "count" : 232,
            "type" : "VEC3"
        },
        {
            "bufferView" : 10,
            "componentType" : 5126,
            "count" : 232,
            "type" : "VEC2"
        },
        {
            "bufferView" : 11,
            "componentType" : 5123,
            "count" : 1152,
            "type" : "SCALAR"
        }
    ],
    "bufferViews" : [
        {
            "buffer" : 0,
            "byteLength" : 194448,
            "byteOffset" : 0
        },
        {
            "buffer" : 0,
            "byteLength" : 194448,
            "byteOffset" : 194448
        },
        {
            "buffer" : 0,
            "byteLength" : 129632,
            "byteOffset" : 388896
        },
        {
            "buffer" : 0,
            "byteLength" : 175572,
            "byteOffset" : 518528
        },
        {
            "buffer" : 0,
            "byteLength" : 576,
            "byteOffset" : 694100
        },
        {
            "buffer" : 0,
            "byteLength" : 576,
            "byteOffset" : 694676
        },
        {
            "buffer" : 0,
            "byteLength" : 384,
            "byteOffset" : 695252
        },
        {
            "buffer" : 0,
            "byteLength" : 408,
            "byteOffset" : 695636
        },
        {
            "buffer" : 0,
            "byteLength" : 2784,
            "byteOffset" : 696044
        },
        {
            "buffer" : 0,
            "byteLength" : 2784,
            "byteOffset" : 698828
        },
        {
            "buffer" : 0,
            "byteLength" : 1856,
            "byteOffset" : 701612
        },
        {
            "buffer" : 0,
            "byteLength" : 2304,
            "byteOffset" : 703468
        }
    ],
    "buffers" : [
        {
            "byteLength" : 705772,
            "uri" : "hoodie.bin"
        }
    ]
}
