{
    "asset" : {
        "generator" : "Khronos glTF Blender I/O v1.8.19",
        "version" : "2.0"
    },
    "scene" : 0,
    "scenes" : [
        {
            "name" : "Scene",
            "nodes" : [
                0,
                1,
                2
            ]
        }
    ],
    "nodes" : [
        {
            "mesh" : 0,
            "name" : "TOP",
            "scale" : [
                0.7623987197875977,
                1.1375700235366821,
                1.4481315612792969
            ]
        },
        {
            "mesh" : 1,
            "name" : "MID",
            "scale" : [
                0.7623987197875977,
                1.1375700235366821,
                1.4481315612792969
            ]
        },
        {
            "mesh" : 2,
            "name" : "LACES",
            "translation" : [
                0.38619324564933777,
                0.7158933281898499,
                0.343731164932251
            ]
        }
    ],
    "meshes" : [
        {
            "name" : "TOP",
            "primitives" : [
                {
                    "attributes" : {
                        "POSITION" : 0,
                        "NORMAL" : 1,
                        "TEXCOORD_0" : 2
                    },
                    "indices" : 3
                }
            ]
        },
        {
            "name" : "MID",
            "primitives" : [
                {
                    "attributes" : {
                        "POSITION" : 4,
                        "NORMAL" : 5,
                        "TEXCOORD_0" : 6
                    },
                    "indices" : 7
                }
            ]
        },
        {
            "name" : "LACE",
            "primitives" : [
                {
                    "attributes" : {
                        "POSITION" : 8,
                        "NORMAL" : 9,
                        "TEXCOORD_0" : 10
                    },
                    "indices" : 11
                }
            ]
        }
    ],
    "accessors" : [
        {
            "bufferView" : 0,
            "componentType" : 5126,
            "count" : 83444,
            "max" : [
                0.9859961867332458,
                1.4671565294265747,
                0.9378296136856079
            ],
            "min" : [
                -0.8588918447494507,
                0.00601410074159503,
                -0.9378306269645691
            ],
            "type" : "VEC3"
        },
        {
            "bufferView" : 1,
            "componentType" : 5126,
            "count" : 83444,
            "type" : "VEC3"
        },
        {
            "bufferView" : 2,
            "componentType" : 5126,
            "count" : 83444,
            "type" : "VEC2"
        },
        {
            "bufferView" : 3,
            "componentType" : 5125,
            "count" : 134832,
            "type" : "SCALAR"
        },
        {
            "bufferView" : 4,
            "componentType" : 5126,
            "count" : 133,
            "max" : [
                0.870139479637146,
                0.7027246356010437,
                0.858250617980957
            ],
            "min" : [
                -0.7877377271652222,
                0.21033592522144318,
                0.44271206855773926
            ],
            "type" : "VEC3"
        },
        {
            "bufferView" : 5,
            "componentType" : 5126,
            "count" : 133,
            "type" : "VEC3"
        },
        {
            "bufferView" : 6,
            "componentType" : 5126,
            "count" : 133,
            "type" : "VEC2"
        },
        {
            "bufferView" : 7,
            "componentType" : 5123,
            "count" : 528,
            "type" : "SCALAR"
        },
        {
            "bufferView" : 8,
            "componentType" : 5126,
            "count" : 390,
            "max" : [
                0.03538668155670166,
                0.48386114835739136,
                0.019969100132584572
            ],
            "min" : [
                -0.6606263518333435,
                -0.02401058003306389,
                -0.5941950082778931
            ],
            "type" : "VEC3"
        },
        {
            "bufferView" : 9,
            "componentType" : 5126,
            "count" : 390,
            "type" : "VEC3"
        },
        {
            "bufferView" : 10,
            "componentType" : 5126,
            "count" : 390,
            "type" : "VEC2"
        },
        {
            "bufferView" : 11,
            "componentType" : 5123,
            "count" : 1872,
            "type" : "SCALAR"
        }
    ],
    "bufferViews" : [
        {
            "buffer" : 0,
            "byteLength" : 1001328,
            "byteOffset" : 0
        },
        {
            "buffer" : 0,
            "byteLength" : 1001328,
            "byteOffset" : 1001328
        },
        {
            "buffer" : 0,
            "byteLength" : 667552,
            "byteOffset" : 2002656
        },
        {
            "buffer" : 0,
            "byteLength" : 539328,
            "byteOffset" : 2670208
        },
        {
            "buffer" : 0,
            "byteLength" : 1596,
            "byteOffset" : 3209536
        },
        {
            "buffer" : 0,
            "byteLength" : 1596,
            "byteOffset" : 3211132
        },
        {
            "buffer" : 0,
            "byteLength" : 1064,
            "byteOffset" : 3212728
        },
        {
            "buffer" : 0,
            "byteLength" : 1056,
            "byteOffset" : 3213792
        },
        {
            "buffer" : 0,
            "byteLength" : 4680,
            "byteOffset" : 3214848
        },
        {
            "buffer" : 0,
            "byteLength" : 4680,
            "byteOffset" : 3219528
        },
        {
            "buffer" : 0,
            "byteLength" : 3120,
            "byteOffset" : 3224208
        },
        {
            "buffer" : 0,
            "byteLength" : 3744,
            "byteOffset" : 3227328
        }
    ],
    "buffers" : [
        {
            "byteLength" : 3231072,
            "uri" : "kicks.bin"
        }
    ]
}
