{
    "asset" : {
        "generator" : "Khronos glTF Blender I/O v1.8.19",
        "version" : "2.0"
    },
    "scene" : 0,
    "scenes" : [
        {
            "name" : "Scene",
            "nodes" : [
                4
            ]
        }
    ],
    "nodes" : [
        {
            "mesh" : 0,
            "name" : "Model_material0_0",
            "translation" : [
                0.0008506363374181092,
                -0.0014640712179243565,
                0.00010054395534098148
            ]
        },
        {
            "children" : [
                0
            ],
            "name" : "Model"
        },
        {
            "children" : [
                1
            ],
            "name" : "RootNode"
        },
        {
            "children" : [
                2
            ],
            "name" : "PegasusTrail.fbx",
            "rotation" : [
                1,
                0,
                0,
                0
            ]
        },
        {
            "children" : [
                3
            ],
            "name" : "Sketchfab_model",
            "rotation" : [
                0.9660849571228027,
                9.318239608546719e-05,
                0.020103735849261284,
                0.25744059681892395
            ],
            "translation" : [
                0.04251489043235779,
                8.055105209350586,
                0.1819758415222168
            ]
        }
    ],
    "materials" : [
        {
            "doubleSided" : true,
            "name" : "material0",
            "pbrMetallicRoughness" : {
                "baseColorFactor" : [
                    0.800000011920929,
                    0.800000011920929,
                    0.800000011920929,
                    1
                ],
                "metallicFactor" : 0,
                "roughnessFactor" : 0.4000000059604645
            }
        }
    ],
    "meshes" : [
        {
            "name" : "Model_material0_0",
            "primitives" : [
                {
                    "attributes" : {
                        "POSITION" : 0,
                        "NORMAL" : 1,
                        "TEXCOORD_0" : 2
                    },
                    "indices" : 3,
                    "material" : 0
                }
            ]
        }
    ],
    "accessors" : [
        {
            "bufferView" : 0,
            "componentType" : 5126,
            "count" : 41652,
            "max" : [
                1.504846215248108,
                0.9808837175369263,
                0.768104076385498
            ],
            "min" : [
                -1.8435863256454468,
                -0.9486197233200073,
                -0.9264450073242188
            ],
            "type" : "VEC3"
        },
        {
            "bufferView" : 1,
            "componentType" : 5126,
            "count" : 41652,
            "type" : "VEC3"
        },
        {
            "bufferView" : 2,
            "componentType" : 5126,
            "count" : 41652,
            "type" : "VEC2"
        },
        {
            "bufferView" : 3,
            "componentType" : 5123,
            "count" : 240204,
            "type" : "SCALAR"
        }
    ],
    "bufferViews" : [
        {
            "buffer" : 0,
            "byteLength" : 499824,
            "byteOffset" : 0
        },
        {
            "buffer" : 0,
            "byteLength" : 499824,
            "byteOffset" : 499824
        },
        {
            "buffer" : 0,
            "byteLength" : 333216,
            "byteOffset" : 999648
        },
        {
            "buffer" : 0,
            "byteLength" : 480408,
            "byteOffset" : 1332864
        }
    ],
    "buffers" : [
        {
            "byteLength" : 1813272,
            "uri" : "Shoe.bin"
        }
    ]
}
